<?xml version="1.0" encoding="UTF-8"?><svg id="Ebene_1" xmlns="http://www.w3.org/2000/svg" viewBox="0 0 638.41 332.78"><defs><style>.cls-1{fill:#c1118a;}</style></defs><path class="cls-1" d="M232.48,255.02c-8.12-25.05,8.66-77.84-13-79.74-3.43-.3-6.42,2.51-8.96,5.87-17.13,22.72,33.37,85.07-15.2,112.28-12.33,5.65-26.43,4.21-37.2-3.74-8.35-15.08-9.29-33.75-1.07-49.17,35.6-66.76-.96-96.15,11.84-146.42,6.12-24.01,24.09-45.11,48.29-50.02,10.84-2.2,24.4,2.69,30.48,9.9,5.48,6.49,8.68,12.68,11.09,19.92,7.41,22.21-6.58,56.23-.04,82.92,1.14,7.02,4.44,13.32,6.86,21.21,1.77,4.98,3.79,9.32,10.12,17.86,9.38,14.53,16.88,31.11,17.47,48.35.73,21.62-8.94,40.24-31.38,43.3-16.14-1.39-29.46-15.39-29.29-32.53ZM207.09,145.9c1.86.89,7.28-.04,9.33-1.32,10.47-13.16,13.55-33.36,4.27-48.22s-29.8,41.79-13.6,49.54Z"/><path class="cls-1" d="M54.41,160.78c-8.57-25.77-33-58.55-17.12-72.2,4.92-4.23,12.51-6.75,20.07-4.07,19.82,7.06,31.76,25.29,36.49,45.77,5.56,24.06,3.11,48.54.65,72.93-1.43,14.15-3.17,38.38,7.05,41.23,37.28-59.67,1.62-81.63,1.54-126.75-.04-23.88,16.53-41.57,37.84-49.87,5.23-5.19,12.71-3.24,18.09.95,13.33,20.12-15.56,28.68-3.77,77.56,6.97,28.9,3.82,56.36-8.87,83.47l-7.47,21.69c-3.84,11.14-9.38,21.54-12.06,33.2-2.38,10.33-9.21,17.65-17.56,21.12-10.29,4.28-18.87.9-28.1-6.01-7.35-8.5-14.36-18.01-19.71-28.53-8.19-37.61,4.37-76.11-7.08-110.51Z"/><path class="cls-1" d="M550.72,149.22c-10.86,10.96-15.48,26.74-11.15,41.38.86,2.92,7.78,5.56,10.44,4.37,22.52-10.08,11.8-41.66,36.26-47.09,2.16-.48,4.44-.08,6.35,1.03l4.23,2.46c4.28,2.48,7.63,6.3,9.53,10.86l2.7,6.46c.41.97.65,2.01.69,3.06,1.85,44.74-31.2,81.14-76.16,84.71-.31.02-.61.07-.91.13-15.94,3.22-32.52-4.85-41.89-18.1-.52-.74-.92-1.57-1.18-2.43-5.51-18.29-.59-37,9.16-52.74.19-.3.36-.61.51-.93,12.95-27.92,19.64-57.52,9.24-86.47-.1-.27-.19-.56-.26-.84-4.56-18.3-6.62-36.31,2.38-53.11.29-.55.64-1.07,1.04-1.54,15.84-18.72,43.45-18.97,62.2-3.21,3.22,2.64,3.96,3.09,8.62,6.73.36.28.71.59,1.02.93,5.07,5.39,8.14,10.72,12.11,19.21.12.25.23.51.32.77,3.08,8.33,3.26,18.11-2.58,25.11-.77.92-1.73,1.67-2.8,2.2-11.92,6-25.45-.89-31.34-12.89-1.3-2.64-3.41-5.52-5.32-6.68-2.35-1.43-7.99-1.57-9.69.55-8.91,11.05-3.73,25.8-.38,33.19,1.3,2.87,3.98,4.87,7.11,5.25h0c1.65.2,3.31-.09,4.83-.75,6.01-2.61,12.88-3.12,18.77-.69,1.82.75,3.32,2.15,4.27,3.87,5.59,10.13,2.91,24.13-7.78,28.46-6.72,2.72-14.63.96-20.36,6.74Z"/><path class="cls-1" d="M387.39,92.71c-6.92-12.01-8-28.03,5.54-34.24,11.72-5.37,25.47-2.82,34.2,8.34,13.96,17.85,15.9,44.9,11.9,67.8l-6.65,38.04c-1.58,9.04-1.78,19.49,2.45,28.1,5.27,2.06,6.7-5.04,8.51-7.62,32.21-45.96,7.86-75.29,4.24-109.19-2.72-25.54,13.22-48.44,38.1-53.62,3.25-.68,9.57.21,11.29,2.34,7.79,9.66,2.17,20.29-2.59,35.23-8.17,25.64,16.32,50.44-4.22,99-11.95,28.24-23.97,55.4-29.66,85.05-6.31,7-13.82,14.04-21.33,14.15-9.3.14-18.83-1.92-25.2-9.74-11.37-13.97-16.61-33.62-16.83-52.48-.47-41.26,14.56-68.99-9.75-111.15Z"/><path class="cls-1" d="M386.06,123.29c2.75,44.69-45.21,66.62-23.25,118.14,6.18,14.5-2,30.68-15.79,34.21-11.99,4.92-22.89,3.83-34.79-1.34-10.93-9.42-12.28-24.53-8.79-39.22,4.12-18.22,27.98-36.73,20.77-47.59-15.81,2.35-33.61-2-41.79-15.24-29.43-47.63,15.23-79.03-25.12-117.75.76-6.54,4.15-12.46,8.52-15.5,6.31-4.38,12.54-3.36,19.77-2.29,17.68,2.63,28.36,17.85,31.02,35.71,2.18,14.64-2.14,26.49-5.25,41.12-.42,1.97-1.03,5.26-1.04,6.63-.05,10.38-.63,19.39,6.14,25.6,3.68,4.19,8.28,7.93,12.99,8.25,5.78.39,9.9-3.54,13.34-9.03,15.47-24.66-17.36-46.89-10.06-73.32,2.08-7.54,5.62-14.71,12.69-16.69,24.03-6.73,38.94,40.91,40.62,68.32Z"/></svg>